<svg width="16" height="16" viewBox="0 0 16 16" fill="none" xmlns="http://www.w3.org/2000/svg">
<path fill-rule="evenodd" clip-rule="evenodd" d="M8.94268 8.00017L12.4714 4.47154C12.732 4.21087 12.732 3.78954 12.4714 3.52887C12.2107 3.26821 11.7894 3.26821 11.5287 3.52887L8.00002 7.05751L4.47136 3.52887C4.21069 3.26821 3.78936 3.26821 3.52869 3.52887C3.26802 3.78954 3.26802 4.21087 3.52869 4.47154L7.05735 8.00017L3.52869 11.5289C3.26802 11.7895 3.26802 12.2108 3.52869 12.4715C3.65869 12.6015 3.82936 12.6668 4.00002 12.6668C4.17069 12.6668 4.34136 12.6015 4.47136 12.4715L8.00002 8.94291L11.5287 12.4715C11.6587 12.6015 11.8294 12.6668 12 12.6668C12.1707 12.6668 12.3414 12.6015 12.4714 12.4715C12.732 12.2108 12.732 11.7895 12.4714 11.5289L8.94268 8.00017Z" fill="black"/>
</svg>
