<svg width="16" height="16" viewBox="0 0 16 16" fill="none" xmlns="http://www.w3.org/2000/svg">
<path fill-rule="evenodd" clip-rule="evenodd" d="M7.87948 2.61737L6.66066 5.04967L6.65986 5.05127C6.46475 5.4372 6.09303 5.703 5.66541 5.76333C5.66509 5.7634 5.66479 5.76347 5.66447 5.76347L2.93397 6.15673C2.86433 6.16593 2.80025 6.1984 2.75235 6.24793C2.63498 6.37007 2.63845 6.56413 2.76043 6.68213C2.76031 6.68207 2.76055 6.68227 2.76043 6.68213L4.733 8.57547C4.73318 8.5756 4.73336 8.5758 4.73354 8.576C5.04683 8.8756 5.19091 9.31167 5.11621 9.7396C5.1162 9.73967 5.11621 9.7396 5.11621 9.7396L4.65013 12.4115C4.63976 12.4781 4.65098 12.5471 4.68359 12.6092C4.76639 12.7643 4.95882 12.823 5.11385 12.7407L5.11821 12.7383L7.55555 11.4751C7.93955 11.2767 8.39588 11.2764 8.77981 11.4748L11.2203 12.7398C11.2818 12.7724 11.3518 12.7841 11.4204 12.7733C11.594 12.7451 11.7115 12.5829 11.6851 12.4104L11.2193 9.74073C11.2192 9.74053 11.2193 9.74093 11.2193 9.74073C11.1437 9.31193 11.2877 8.8748 11.602 8.57507C11.6023 8.5748 11.6026 8.57447 11.6029 8.5742L13.5725 6.6818C13.5725 6.68187 13.5726 6.68173 13.5725 6.6818C13.6221 6.63387 13.6547 6.56967 13.6639 6.50093C13.6859 6.33187 13.567 6.178 13.3999 6.15607L13.3937 6.15527L10.6688 5.7628C10.6685 5.7628 10.6681 5.76273 10.6679 5.76267C10.2404 5.7024 9.86815 5.43655 9.67361 5.04961L8.45635 2.61717C8.42508 2.55785 8.37708 2.51062 8.31921 2.48079L8.31828 2.48031C8.15868 2.39759 7.96301 2.45923 7.87948 2.61737ZM8.77781 1.59215C8.12768 1.25563 7.32741 1.50903 6.99035 2.15967L5.76742 4.60009C5.76732 4.60029 5.76721 4.6005 5.76711 4.60071C5.71961 4.69415 5.62924 4.75863 5.52548 4.77319L2.79952 5.16575C2.50775 5.20511 2.23711 5.34169 2.03242 5.55392C1.53142 6.07433 1.54755 6.9016 2.06651 7.4022L2.06741 7.40307L4.04141 9.29773L4.04229 9.2986C4.11526 9.36827 4.1483 9.4692 4.1311 9.56767L3.66441 12.2431L3.66347 12.2487C3.61711 12.5333 3.66592 12.8232 3.79939 13.0763L3.80003 13.0775C4.14099 13.7197 4.93733 13.9649 5.58033 13.6252L8.01515 12.3633C8.01508 12.3633 8.01521 12.3632 8.01515 12.3633C8.11115 12.3137 8.22488 12.3137 8.32081 12.3633L10.7523 13.6235C10.753 13.6239 10.7537 13.6243 10.7544 13.6247C11.0069 13.7578 11.2958 13.8057 11.5782 13.7608L11.5792 13.7607C12.2979 13.6448 12.7879 12.9686 12.6719 12.2488L12.2042 9.56773L12.204 9.56667C12.1865 9.46807 12.2194 9.36793 12.2923 9.29853L14.2667 7.4016C14.4796 7.19627 14.6165 6.92453 14.6553 6.6322L14.6554 6.6314C14.749 5.9178 14.2485 5.26079 13.5335 5.16505L10.8095 4.77278L10.8078 4.77253C10.7037 4.75792 10.6138 4.69328 10.5671 4.60063C10.5671 4.60055 10.5671 4.60069 10.5671 4.60063L9.34875 2.16592L9.34568 2.15985C9.21968 1.91644 9.02168 1.71795 8.77781 1.59215Z" fill="white"/>
</svg>
