<svg width="16" height="16" viewBox="0 0 16 16" fill="none" xmlns="http://www.w3.org/2000/svg">
<path d="M12.8833 6.31213C12.8833 6.31213 12.5213 10.8021 12.3113 12.6935C12.2113 13.5968 11.6533 14.1261 10.7393 14.1428C8.99994 14.1741 7.25861 14.1761 5.51994 14.1395C4.64061 14.1215 4.09194 13.5855 3.99394 12.6981C3.78261 10.7901 3.42261 6.31213 3.42261 6.31213" stroke="black" stroke-linecap="round" stroke-linejoin="round"/>
<path d="M13.8055 4.15979H2.50012" stroke="black" stroke-linecap="round" stroke-linejoin="round"/>
<path d="M11.627 4.15974C11.1037 4.15974 10.653 3.78974 10.5503 3.27707L10.3883 2.46641C10.2883 2.09241 9.94968 1.83374 9.56368 1.83374H6.74168C6.35568 1.83374 6.01701 2.09241 5.91701 2.46641L5.75501 3.27707C5.65234 3.78974 5.20168 4.15974 4.67834 4.15974" stroke="black" stroke-linecap="round" stroke-linejoin="round"/>
</svg>
